
<svg xmlns="http://www.w3.org/2000/svg" viewBox="0 0 512 512" fill="#4CAF50">
  <path d="M160 144c-35.3 0-64-28.7-64-64s28.7-64 64-64c5.3 0 10.4.7 15.3 1.9C186.3 11.8 196.8 8 208 8c11.5 0 22.2 3.9 30.7 10.6C246.5 6.8 261.6 0 278 0c29.9 0 55.6 23.1 60.2 53.2c6.6-2.8 13.9-4.2 21.8-4.2c30.9 0 56 25.1 56 56c0 5.3-.7 10.4-2.1 15.3c5.3 8.2 8.1 17.9 8.1 28.7c0 29.9-23.1 55.6-53.2 60.2c2.8 6.6 4.2 13.9 4.2 21.8c0 30.9-25.1 56-56 56c-9.7 0-19-2.5-27-6.8C280 310.8 261 328 238 328c-41.8 0-75.9-34-76-75.8c-9.1 6.5-20.2 10.8-32 10.8c-14.2 0-27.2-5.3-37-14V328c0 61.9-50.1 112-112 112c-25.3 0-48.5-8.4-67.2-22.6c16-15.6 26.2-37.5 26.2-61.6V235c-11.5-1.4-22.1-5.3-31-11.3c8.9-33.4 39.6-58 75.9-58c21.6 0 41 8.9 55.2 23.2c14.7-9.8 32.2-15.2 50.8-15.2c13.9 0 27.3 3.2 39.2 8.8c5.8-22.5 26.5-39 50.8-39c5.3 0 10.4.7 15.3 1.9C146.7 11.8 157.2 8 168.4 8c13.9 0 26.3 5.4 35.6 14c-4 8.6-6.3 18.1-6.3 28.2c0 37.1 30.1 67.2 67.2 67.2c2.8 0 5.5-.2 8.2-.5c-10.5 15.2-27.8 25.2-47.5 25.2c-5.6 0-11-.8-16.2-2.2c-7.9 2.2-16.2 3.3-24.7 3.3c-14.6 0-28.4-3.5-40.5-9.5C134.9 140.7 124.9 144 114.2 144H160z"/>
</svg>
